<svg xmlns="http://www.w3.org/2000/svg" id="Layer_1" data-name="Layer 1" viewBox="0 0 128.76 128.76" width="128.76" height="128.76"><metadata><rdf:RDF xmlns:rdf="http://www.w3.org/1999/02/22-rdf-syntax-ns#" xmlns:dc="http://purl.org/dc/elements/1.1/"><rdf:Description><dc:creator>RealFaviconGenerator</dc:creator><dc:source>https://realfavicongenerator.net</dc:source></rdf:Description></rdf:RDF></metadata><defs>
    <style>
      .cls-1 {
        fill: #0b0e17;
      }

      .cls-2 {
        fill: #fff;
      }
    </style>
  </defs><circle class="cls-1" cx="64.38" cy="64.38" r="64.38"></circle><g>
    <path class="cls-2" d="M67.39,88.66c-.88,5.31-2.69,8.98-5.41,11.01-1.15.84-2.59,1.51-4.34,2.02-1.75.49-3.67.74-5.76.74-2.82,0-5.61-.41-8.34-1.21-2.75-.8-6.12-2-10.15-3.6-.99-.38-2.07-.78-3.25-1.23s-2.49-.92-3.95-1.44l-1.88-.49c-.99.48-2.07.84-3.25,1.09s-2.28.39-3.32.39c-1.09,0-1.99-.15-2.66-.46s-1.02-.77-1.02-1.37c0-1.28,1.43-1.91,4.3-1.91,1.93,0,3.91.32,5.96.99,1.78-.48,3.66-1.11,5.63-1.91.36-.14.91-.34,1.64-.6s1.39-.48,1.96-.67c-4.85-.42-9.09-1.71-12.72-3.85-3.63-2.14-6.42-5.04-8.38-8.72s-2.94-7.95-2.94-12.85c0-5.17,1.18-9.77,3.52-13.76,2.35-3.99,5.62-7.1,9.82-9.32s9-3.32,14.36-3.32,10.37,1.01,14.52,3.04c4.15,2.02,7.37,4.95,9.67,8.79s3.45,8.41,3.45,13.73c0,4.99-1.09,9.44-3.29,13.38s-5.27,7.02-9.23,9.28c-3.97,2.26-8.48,3.49-13.55,3.67-1.25.14-2.38.35-3.36.63-.99.28-2.17.69-3.52,1.21-1.67.66-3.29,1.21-4.85,1.63l6.35.49c6.63.52,11.41.77,14.32.77,1.93,0,3.88-.11,5.87-.35,3.24-.34,5.79-.95,7.68-1.86,1.88-.92,3.45-2.34,4.69-4.27l1.42.35h.03ZM24.52,77.23c1.33,3.71,3.12,6.59,5.4,8.62,2.27,2.02,4.79,3.04,7.55,3.04s5.41-1.05,7.6-3.14,3.88-5.02,5.04-8.79c1.18-3.77,1.77-8.07,1.77-12.92s-.67-9.19-1.99-12.92c-1.33-3.71-3.14-6.59-5.41-8.62-2.27-2.02-4.79-3.04-7.55-3.04s-5.41,1.05-7.6,3.14-3.88,5.02-5.04,8.79c-1.18,3.77-1.77,8.07-1.77,12.92s.66,9.21,1.99,12.92h.01Z"></path>
    <path class="cls-2" d="M113.42,45.43c5.06,4.16,7.6,10.23,7.6,18.18,0,5.13-1.23,9.61-3.71,13.45-2.48,3.84-6.05,6.81-10.73,8.93s-10.24,3.18-16.72,3.18l-4.85-.07c-3.03-.1-5.21-.14-6.57-.14-5.38,0-9.39.07-12.05.21v-1.42c1.72-.1,2.98-.28,3.8-.56.81-.28,1.36-.83,1.64-1.63.28-.8.43-2.09.43-3.88v-35.01c0-1.79-.14-3.08-.43-3.88s-.84-1.35-1.64-1.63c-.81-.28-2.07-.46-3.8-.56v-1.42c2.19.14,5.35.21,9.47.21h2.42l3.12-.07c4.27-.1,7.33-.14,9.16-.14,10.17,0,17.8,2.09,22.87,6.25h-.01ZM86.84,40.95c-.81.34-1.37.92-1.68,1.77-.31.84-.46,2.12-.46,3.81v35.3c0,1.7.15,2.97.46,3.81s.87,1.43,1.68,1.77c.81.32,2.05.49,3.71.49,6.32,0,10.8-1.99,13.47-5.97,2.66-3.98,3.99-9.99,3.99-18.04s-1.37-13.96-4.11-17.75c-2.75-3.78-7.22-5.68-13.42-5.68-1.63,0-2.83.17-3.64.49Z"></path>
  </g></svg>